<svg width="228" height="74" viewBox="0 0 228 74" fill="none" xmlns="http://www.w3.org/2000/svg">
<path d="M18.772 39.8H28.204C30.604 39.8 32.74 40.304 34.612 41.312C36.508 42.32 37.984 43.772 39.04 45.668C40.096 47.564 40.624 49.808 40.624 52.4C40.624 54.992 40.096 57.236 39.04 59.132C37.984 61.028 36.508 62.48 34.612 63.488C32.74 64.496 30.604 65 28.204 65H18.772V39.8ZM28.204 60.896C30.604 60.896 32.428 60.152 33.676 58.664C34.948 57.152 35.584 55.064 35.584 52.4C35.584 49.736 34.948 47.66 33.676 46.172C32.428 44.66 30.604 43.904 28.204 43.904H23.38V60.896H28.204Z" fill="#FF5555"/>
<path d="M52.4632 65.36C50.3752 65.36 48.5872 64.94 47.0992 64.1C45.6352 63.236 44.5312 62.096 43.7872 60.68C43.0672 59.24 42.7072 57.644 42.7072 55.892C42.7072 54.212 43.0552 52.676 43.7512 51.284C44.4472 49.892 45.4552 48.788 46.7752 47.972C48.0952 47.132 49.6672 46.712 51.4912 46.712C53.1712 46.712 54.5872 47.06 55.7392 47.756C56.9152 48.452 57.7912 49.388 58.3672 50.564C58.9672 51.74 59.2672 53.06 59.2672 54.524C59.2672 55.244 59.1712 56.06 58.9792 56.972H47.3512C47.5912 58.556 48.2152 59.744 49.2232 60.536C50.2312 61.304 51.4432 61.688 52.8592 61.688C54.8032 61.688 56.6032 61.196 58.2592 60.212L58.4752 63.992C57.7072 64.4 56.8072 64.736 55.7752 65C54.7672 65.24 53.6632 65.36 52.4632 65.36ZM54.7312 53.948C54.7312 53.012 54.4672 52.184 53.9392 51.464C53.4112 50.744 52.5952 50.384 51.4912 50.384C50.3872 50.384 49.4992 50.708 48.8272 51.356C48.1552 52.004 47.6992 52.868 47.4592 53.948H54.7312Z" fill="#FF5555"/>
<path d="M60.1588 47H64.5508L68.9788 59.456L73.4068 47H77.7988L70.8868 65H67.0708L60.1588 47Z" fill="#FF5555"/>
<path d="M88.3577 65.36C86.2697 65.36 84.4817 64.94 82.9937 64.1C81.5297 63.236 80.4257 62.096 79.6817 60.68C78.9617 59.24 78.6017 57.644 78.6017 55.892C78.6017 54.212 78.9497 52.676 79.6457 51.284C80.3417 49.892 81.3497 48.788 82.6697 47.972C83.9897 47.132 85.5617 46.712 87.3857 46.712C89.0657 46.712 90.4817 47.06 91.6337 47.756C92.8097 48.452 93.6857 49.388 94.2617 50.564C94.8617 51.74 95.1617 53.06 95.1617 54.524C95.1617 55.244 95.0657 56.06 94.8737 56.972H83.2457C83.4857 58.556 84.1097 59.744 85.1177 60.536C86.1257 61.304 87.3377 61.688 88.7537 61.688C90.6977 61.688 92.4977 61.196 94.1537 60.212L94.3697 63.992C93.6017 64.4 92.7017 64.736 91.6697 65C90.6617 65.24 89.5577 65.36 88.3577 65.36ZM90.6257 53.948C90.6257 53.012 90.3617 52.184 89.8337 51.464C89.3057 50.744 88.4897 50.384 87.3857 50.384C86.2817 50.384 85.3937 50.708 84.7217 51.356C84.0497 52.004 83.5937 52.868 83.3537 53.948H90.6257Z" fill="#FF5555"/>
<path d="M102.817 65.36C101.281 65.36 100.129 64.928 99.3611 64.064C98.5931 63.176 98.2091 62.036 98.2091 60.644V38H102.673V58.808C102.673 59.768 102.721 60.452 102.817 60.86C102.937 61.244 103.129 61.484 103.393 61.58C103.681 61.652 104.161 61.688 104.833 61.688L104.437 65.36H102.817Z" fill="#FF5555"/>
<path d="M115.662 65.36C113.766 65.36 112.122 64.94 110.73 64.1C109.338 63.26 108.27 62.132 107.526 60.716C106.782 59.3 106.41 57.74 106.41 56.036C106.41 54.332 106.782 52.76 107.526 51.32C108.27 49.88 109.338 48.74 110.73 47.9C112.122 47.06 113.766 46.64 115.662 46.64C117.558 46.64 119.202 47.06 120.594 47.9C121.986 48.74 123.054 49.88 123.798 51.32C124.542 52.76 124.914 54.332 124.914 56.036C124.914 57.74 124.542 59.3 123.798 60.716C123.054 62.132 121.986 63.26 120.594 64.1C119.202 64.94 117.558 65.36 115.662 65.36ZM115.662 61.688C117.126 61.688 118.266 61.172 119.082 60.14C119.922 59.108 120.342 57.74 120.342 56.036C120.342 54.308 119.922 52.928 119.082 51.896C118.266 50.84 117.126 50.312 115.662 50.312C114.198 50.312 113.046 50.84 112.206 51.896C111.39 52.928 110.982 54.308 110.982 56.036C110.982 57.74 111.39 59.108 112.206 60.14C113.046 61.172 114.198 61.688 115.662 61.688Z" fill="#FF5555"/>
<path d="M137.418 46.712C139.122 46.712 140.586 47.132 141.81 47.972C143.034 48.812 143.958 49.94 144.582 51.356C145.206 52.772 145.518 54.332 145.518 56.036C145.518 57.74 145.206 59.3 144.582 60.716C143.958 62.132 143.034 63.26 141.81 64.1C140.586 64.94 139.122 65.36 137.418 65.36C136.338 65.36 135.414 65.24 134.646 65C133.902 64.784 133.182 64.424 132.486 63.92V73.712H128.022V47H131.622L132.09 48.656C132.858 48.008 133.662 47.528 134.502 47.216C135.342 46.88 136.314 46.712 137.418 46.712ZM136.734 61.688C138.054 61.688 139.086 61.172 139.83 60.14C140.574 59.108 140.946 57.74 140.946 56.036C140.946 54.332 140.574 52.964 139.83 51.932C139.086 50.9 138.054 50.384 136.734 50.384C135.246 50.384 134.13 50.888 133.386 51.896C132.642 52.904 132.27 54.284 132.27 56.036C132.27 57.788 132.642 59.168 133.386 60.176C134.13 61.184 135.246 61.688 136.734 61.688Z" fill="#FF5555"/>
<path d="M168.819 46.712C171.219 46.712 172.995 47.444 174.147 48.908C175.323 50.348 175.911 52.376 175.911 54.992V65H171.447V55.316C171.447 53.612 171.183 52.364 170.655 51.572C170.127 50.78 169.263 50.384 168.063 50.384C166.887 50.384 165.999 50.792 165.399 51.608C164.799 52.4 164.499 53.528 164.499 54.992V65H160.035V55.316C160.035 53.612 159.759 52.364 159.207 51.572C158.655 50.78 157.779 50.384 156.579 50.384C155.163 50.384 153.999 50.9 153.087 51.932V65H148.623V47H152.439L152.583 48.44C154.215 47.288 155.979 46.712 157.875 46.712C160.179 46.712 161.895 47.54 163.023 49.196C163.647 48.404 164.463 47.792 165.471 47.36C166.479 46.928 167.595 46.712 168.819 46.712Z" fill="#FF5555"/>
<path d="M188.588 65.36C186.5 65.36 184.712 64.94 183.224 64.1C181.76 63.236 180.656 62.096 179.912 60.68C179.192 59.24 178.832 57.644 178.832 55.892C178.832 54.212 179.18 52.676 179.876 51.284C180.572 49.892 181.58 48.788 182.9 47.972C184.22 47.132 185.792 46.712 187.616 46.712C189.296 46.712 190.712 47.06 191.864 47.756C193.04 48.452 193.916 49.388 194.492 50.564C195.092 51.74 195.392 53.06 195.392 54.524C195.392 55.244 195.296 56.06 195.104 56.972H183.476C183.716 58.556 184.34 59.744 185.348 60.536C186.356 61.304 187.568 61.688 188.984 61.688C190.928 61.688 192.728 61.196 194.384 60.212L194.6 63.992C193.832 64.4 192.932 64.736 191.9 65C190.892 65.24 189.788 65.36 188.588 65.36ZM190.856 53.948C190.856 53.012 190.592 52.184 190.064 51.464C189.536 50.744 188.72 50.384 187.616 50.384C186.512 50.384 185.624 50.708 184.952 51.356C184.28 52.004 183.824 52.868 183.584 53.948H190.856Z" fill="#FF5555"/>
<path d="M207.512 46.712C209.744 46.712 211.436 47.456 212.588 48.944C213.74 50.432 214.316 52.436 214.316 54.956V65H209.852V55.316C209.852 53.636 209.564 52.4 208.988 51.608C208.436 50.792 207.536 50.384 206.288 50.384C204.92 50.384 203.792 50.9 202.904 51.932V65H198.44V47H202.616L202.688 48.26C204.2 47.228 205.808 46.712 207.512 46.712Z" fill="#FF5555"/>
<path d="M223.96 65.36C222.376 65.36 221.176 64.904 220.36 63.992C219.544 63.056 219.136 61.94 219.136 60.644V50.672H216.58L216.976 47H219.136V43.04L223.6 42.572V47H227.56V50.672H223.6V58.808C223.6 59.768 223.648 60.44 223.744 60.824C223.864 61.184 224.092 61.424 224.428 61.544C224.788 61.64 225.424 61.688 226.336 61.688H227.56L227.164 65.36H223.96Z" fill="#FF5555"/>
<path d="M0.771973 0.799988H5.37997V10.772H16.9V0.799988H21.508V26H16.9V15.092H5.37997V26H0.771973V0.799988Z" fill="#FF5555"/>
<path d="M34.0647 26.36C32.1687 26.36 30.5247 25.94 29.1327 25.1C27.7407 24.26 26.6727 23.132 25.9287 21.716C25.1847 20.3 24.8127 18.74 24.8127 17.036C24.8127 15.332 25.1847 13.76 25.9287 12.32C26.6727 10.88 27.7407 9.73999 29.1327 8.89999C30.5247 8.05999 32.1687 7.63999 34.0647 7.63999C35.9607 7.63999 37.6047 8.05999 38.9967 8.89999C40.3887 9.73999 41.4567 10.88 42.2007 12.32C42.9447 13.76 43.3167 15.332 43.3167 17.036C43.3167 18.74 42.9447 20.3 42.2007 21.716C41.4567 23.132 40.3887 24.26 38.9967 25.1C37.6047 25.94 35.9607 26.36 34.0647 26.36ZM34.0647 22.688C35.5287 22.688 36.6687 22.172 37.4847 21.14C38.3247 20.108 38.7447 18.74 38.7447 17.036C38.7447 15.308 38.3247 13.928 37.4847 12.896C36.6687 11.84 35.5287 11.312 34.0647 11.312C32.6007 11.312 31.4487 11.84 30.6087 12.896C29.7927 13.928 29.3847 15.308 29.3847 17.036C29.3847 18.74 29.7927 20.108 30.6087 21.14C31.4487 22.172 32.6007 22.688 34.0647 22.688Z" fill="#FF5555"/>
<path d="M46.4239 7.99999H50.5999L50.7079 9.90799C51.2359 9.30799 51.9079 8.77999 52.7239 8.32399C53.5639 7.86799 54.4399 7.63999 55.3519 7.63999C55.6399 7.63999 55.9039 7.66399 56.1439 7.71199L55.8199 12.104C55.3639 11.984 54.8479 11.924 54.2719 11.924C53.5279 11.924 52.8439 12.104 52.2199 12.464C51.5959 12.8 51.1519 13.22 50.8879 13.724V26H46.4239V7.99999Z" fill="#FF5555"/>
<path d="M58.3067 0.799988H62.7707V5.26399H58.3067V0.799988ZM58.3067 7.99999H62.7707V26H58.3067V7.99999Z" fill="#FF5555"/>
<path d="M81.3192 22.22V26H65.5152L74.2632 11.78H66.3432V7.99999H81.2472L72.4992 22.22H81.3192Z" fill="#FF5555"/>
<path d="M91.8615 26.36C89.9655 26.36 88.3215 25.94 86.9295 25.1C85.5375 24.26 84.4695 23.132 83.7255 21.716C82.9815 20.3 82.6095 18.74 82.6095 17.036C82.6095 15.332 82.9815 13.76 83.7255 12.32C84.4695 10.88 85.5375 9.73999 86.9295 8.89999C88.3215 8.05999 89.9655 7.63999 91.8615 7.63999C93.7575 7.63999 95.4015 8.05999 96.7935 8.89999C98.1855 9.73999 99.2535 10.88 99.9975 12.32C100.742 13.76 101.114 15.332 101.114 17.036C101.114 18.74 100.742 20.3 99.9975 21.716C99.2535 23.132 98.1855 24.26 96.7935 25.1C95.4015 25.94 93.7575 26.36 91.8615 26.36ZM91.8615 22.688C93.3255 22.688 94.4655 22.172 95.2815 21.14C96.1215 20.108 96.5415 18.74 96.5415 17.036C96.5415 15.308 96.1215 13.928 95.2815 12.896C94.4655 11.84 93.3255 11.312 91.8615 11.312C90.3975 11.312 89.2455 11.84 88.4055 12.896C87.5895 13.928 87.1815 15.308 87.1815 17.036C87.1815 18.74 87.5895 20.108 88.4055 21.14C89.2455 22.172 90.3975 22.688 91.8615 22.688Z" fill="#FF5555"/>
<path d="M113.293 7.71199C115.525 7.71199 117.217 8.45599 118.369 9.94399C119.521 11.432 120.097 13.436 120.097 15.956V26H115.633V16.316C115.633 14.636 115.345 13.4 114.769 12.608C114.217 11.792 113.317 11.384 112.069 11.384C110.701 11.384 109.573 11.9 108.685 12.932V26H104.221V7.99999H108.397L108.469 9.25999C109.981 8.22799 111.589 7.71199 113.293 7.71199Z" fill="#FF5555"/>
</svg>
