<svg width="221" height="53" viewBox="0 0 221 53" fill="none" xmlns="http://www.w3.org/2000/svg">
<path d="M10.56 14.016H4.44L3.048 18H0.072L6.048 1.2H8.952L14.928 18H11.952L10.56 14.016ZM9.6 11.328L7.512 5.328L5.4 11.328H9.6ZM22.2386 1.2H25.2626L32.4386 12.048V1.2H35.5106V18H32.9906L25.3106 6.48V18H22.2386V1.2ZM44.2073 18.24C42.8153 18.24 41.6233 17.96 40.6313 17.4C39.6553 16.824 38.9193 16.064 38.4233 15.12C37.9433 14.16 37.7033 13.096 37.7033 11.928C37.7033 10.808 37.9353 9.784 38.3993 8.856C38.8633 7.928 39.5353 7.192 40.4153 6.648C41.2953 6.088 42.3433 5.808 43.5593 5.808C44.6793 5.808 45.6233 6.04 46.3913 6.504C47.1753 6.968 47.7593 7.592 48.1433 8.376C48.5433 9.16 48.7433 10.04 48.7433 11.016C48.7433 11.496 48.6793 12.04 48.5513 12.648H40.7993C40.9593 13.704 41.3753 14.496 42.0473 15.024C42.7193 15.536 43.5273 15.792 44.4713 15.792C45.7673 15.792 46.9673 15.464 48.0713 14.808L48.2153 17.328C47.7033 17.6 47.1033 17.824 46.4153 18C45.7433 18.16 45.0073 18.24 44.2073 18.24ZM45.7193 10.632C45.7193 10.008 45.5433 9.456 45.1913 8.976C44.8393 8.496 44.2953 8.256 43.5593 8.256C42.8233 8.256 42.2313 8.472 41.7833 8.904C41.3353 9.336 41.0313 9.912 40.8713 10.632H45.7193ZM49.6228 6H52.5268L54.5908 14.376L56.8468 6.24H59.3428L61.5748 14.376L63.6628 6H66.5668L63.0628 18H60.5668L58.0948 10.176L55.6228 18H53.1268L49.6228 6ZM86.8755 1.2L80.9715 11.208V18H77.8995V11.208L71.9955 1.2H75.3555L79.4355 8.448L83.5155 1.2H86.8755ZM91.5431 18.24C90.2791 18.24 89.1831 17.96 88.2551 17.4C87.3271 16.84 86.6151 16.088 86.1191 15.144C85.6231 14.2 85.3751 13.16 85.3751 12.024C85.3751 10.888 85.6231 9.84 86.1191 8.88C86.6151 7.92 87.3271 7.16 88.2551 6.6C89.1831 6.04 90.2791 5.76 91.5431 5.76C92.8071 5.76 93.9031 6.04 94.8311 6.6C95.7591 7.16 96.4711 7.92 96.9671 8.88C97.4631 9.84 97.7111 10.888 97.7111 12.024C97.7111 13.16 97.4631 14.2 96.9671 15.144C96.4711 16.088 95.7591 16.84 94.8311 17.4C93.9031 17.96 92.8071 18.24 91.5431 18.24ZM91.5431 15.792C92.5191 15.792 93.2791 15.448 93.8231 14.76C94.3831 14.072 94.6631 13.16 94.6631 12.024C94.6631 10.872 94.3831 9.952 93.8231 9.264C93.2791 8.56 92.5191 8.208 91.5431 8.208C90.5671 8.208 89.7991 8.56 89.2391 9.264C88.6951 9.952 88.4231 10.872 88.4231 12.024C88.4231 13.16 88.6951 14.072 89.2391 14.76C89.7991 15.448 90.5671 15.792 91.5431 15.792ZM99.7826 6H102.567L102.639 7.272C102.991 6.872 103.439 6.52 103.983 6.216C104.543 5.912 105.127 5.76 105.735 5.76C105.927 5.76 106.103 5.776 106.263 5.808L106.047 8.736C105.743 8.656 105.399 8.616 105.015 8.616C104.519 8.616 104.063 8.736 103.647 8.976C103.231 9.2 102.935 9.48 102.759 9.816V18H99.7826V6ZM107.681 -1.43051e-06H110.657V10.92L114.377 6H117.737L113.368 11.76L117.833 18H114.473L110.657 12.672V18H107.681V-1.43051e-06ZM1.848 30.2H7.992C9.784 30.2 11.192 30.632 12.216 31.496C13.256 32.344 13.776 33.608 13.776 35.288C13.776 36.456 13.528 37.416 13.032 38.168C12.536 38.904 11.832 39.496 10.92 39.944L14.712 47H11.28L8.04 40.76H7.92H4.92V47H1.848V30.2ZM7.176 38.192C9.432 38.192 10.56 37.28 10.56 35.456C10.56 34.576 10.304 33.912 9.792 33.464C9.28 33 8.448 32.768 7.296 32.768H4.92V38.192H7.176ZM21.7541 47.24C20.3621 47.24 19.1701 46.96 18.1781 46.4C17.2021 45.824 16.4661 45.064 15.9701 44.12C15.4901 43.16 15.2501 42.096 15.2501 40.928C15.2501 39.808 15.4821 38.784 15.9461 37.856C16.4101 36.928 17.0821 36.192 17.9621 35.648C18.8421 35.088 19.8901 34.808 21.1061 34.808C22.2261 34.808 23.1701 35.04 23.9381 35.504C24.7221 35.968 25.3061 36.592 25.6901 37.376C26.0901 38.16 26.2901 39.04 26.2901 40.016C26.2901 40.496 26.2261 41.04 26.0981 41.648H18.3461C18.5061 42.704 18.9221 43.496 19.5941 44.024C20.2661 44.536 21.0741 44.792 22.0181 44.792C23.3141 44.792 24.5141 44.464 25.6181 43.808L25.7621 46.328C25.2501 46.6 24.6501 46.824 23.9621 47C23.2901 47.16 22.5541 47.24 21.7541 47.24ZM23.2661 39.632C23.2661 39.008 23.0901 38.456 22.7381 37.976C22.3861 37.496 21.8421 37.256 21.1061 37.256C20.3701 37.256 19.7781 37.472 19.3301 37.904C18.8821 38.336 18.5781 38.912 18.4181 39.632H23.2661ZM30.9137 47.24C29.9217 47.24 29.0897 46.92 28.4177 46.28C27.7617 45.624 27.4337 44.744 27.4337 43.64C27.4337 42.6 27.8097 41.768 28.5617 41.144C29.3137 40.504 30.2017 40.056 31.2257 39.8C32.2497 39.528 33.2337 39.376 34.1777 39.344C34.1457 38.64 33.9617 38.136 33.6257 37.832C33.3057 37.528 32.7697 37.376 32.0177 37.376C31.4897 37.376 30.9697 37.448 30.4577 37.592C29.9617 37.736 29.3857 37.968 28.7297 38.288L28.4657 35.864C29.9217 35.16 31.3777 34.808 32.8337 34.808C34.2417 34.808 35.3137 35.192 36.0497 35.96C36.8017 36.728 37.1777 37.952 37.1777 39.632V42.872C37.1777 43.48 37.2017 43.92 37.2497 44.192C37.3137 44.448 37.4097 44.616 37.5377 44.696C37.6817 44.76 37.9137 44.792 38.2337 44.792H38.6177L38.3537 47.24H37.2737C36.6177 47.24 36.0657 47.12 35.6177 46.88C35.1697 46.624 34.8257 46.28 34.5857 45.848C34.2017 46.28 33.6737 46.624 33.0017 46.88C32.3457 47.12 31.6497 47.24 30.9137 47.24ZM32.1617 44.96C32.4657 44.96 32.8097 44.888 33.1937 44.744C33.5777 44.584 33.9137 44.368 34.2017 44.096V41.36C33.2417 41.408 32.3937 41.616 31.6577 41.984C30.9217 42.352 30.5537 42.864 30.5537 43.52C30.5537 44.016 30.6817 44.384 30.9377 44.624C31.1937 44.848 31.6017 44.96 32.1617 44.96ZM43.3468 47.24C42.3228 47.24 41.5548 46.952 41.0428 46.376C40.5308 45.784 40.2748 45.024 40.2748 44.096V29H43.2508V42.872C43.2508 43.512 43.2828 43.968 43.3468 44.24C43.4268 44.496 43.5548 44.656 43.7308 44.72C43.9228 44.768 44.2428 44.792 44.6908 44.792L44.4268 47.24H43.3468ZM52.4261 30.2H63.1781V33.176H55.5701V36.752H61.4741V39.728H55.5701V44.024H63.4181V47H52.4261V30.2ZM69.0188 47.24C68.2508 47.24 67.5468 47.168 66.9068 47.024C66.2828 46.88 65.6348 46.656 64.9628 46.352L65.2268 43.808C65.8988 44.208 66.5228 44.512 67.0988 44.72C67.6908 44.912 68.2988 45.008 68.9228 45.008C70.1388 45.008 70.7468 44.608 70.7468 43.808C70.7468 43.376 70.5868 43.048 70.2668 42.824C69.9468 42.584 69.3708 42.304 68.5388 41.984C67.3548 41.552 66.4828 41.064 65.9228 40.52C65.3628 39.96 65.0828 39.208 65.0828 38.264C65.0828 37.224 65.4828 36.384 66.2828 35.744C67.0828 35.088 68.1628 34.76 69.5228 34.76C70.8828 34.76 72.1228 35.072 73.2428 35.696L72.9788 38.24C72.3708 37.824 71.7948 37.504 71.2508 37.28C70.7228 37.056 70.1628 36.944 69.5708 36.944C69.0588 36.944 68.6588 37.048 68.3708 37.256C68.0988 37.464 67.9628 37.76 67.9628 38.144C67.9628 38.448 68.0428 38.696 68.2028 38.888C68.3788 39.08 68.6188 39.256 68.9228 39.416C69.2268 39.56 69.7308 39.768 70.4348 40.04C71.6028 40.488 72.4428 40.984 72.9548 41.528C73.4668 42.056 73.7228 42.768 73.7228 43.664C73.7228 44.8 73.3148 45.68 72.4988 46.304C71.6828 46.928 70.5228 47.24 69.0188 47.24ZM79.6712 47.24C78.6152 47.24 77.8152 46.936 77.2712 46.328C76.7272 45.704 76.4552 44.96 76.4552 44.096V37.448H74.7512L75.0152 35H76.4552V32.36L79.4312 32.048V35H82.0712V37.448H79.4312V42.872C79.4312 43.512 79.4632 43.96 79.5272 44.216C79.6072 44.456 79.7592 44.616 79.9832 44.696C80.2232 44.76 80.6472 44.792 81.2552 44.792H82.0712L81.8072 47.24H79.6712ZM86.6012 47.24C85.6092 47.24 84.7772 46.92 84.1052 46.28C83.4492 45.624 83.1212 44.744 83.1212 43.64C83.1212 42.6 83.4972 41.768 84.2492 41.144C85.0012 40.504 85.8892 40.056 86.9132 39.8C87.9372 39.528 88.9212 39.376 89.8652 39.344C89.8332 38.64 89.6492 38.136 89.3132 37.832C88.9932 37.528 88.4572 37.376 87.7052 37.376C87.1772 37.376 86.6572 37.448 86.1452 37.592C85.6492 37.736 85.0732 37.968 84.4172 38.288L84.1532 35.864C85.6092 35.16 87.0652 34.808 88.5212 34.808C89.9292 34.808 91.0012 35.192 91.7372 35.96C92.4892 36.728 92.8652 37.952 92.8652 39.632V42.872C92.8652 43.48 92.8892 43.92 92.9372 44.192C93.0012 44.448 93.0972 44.616 93.2252 44.696C93.3692 44.76 93.6012 44.792 93.9212 44.792H94.3052L94.0412 47.24H92.9612C92.3052 47.24 91.7532 47.12 91.3052 46.88C90.8572 46.624 90.5132 46.28 90.2732 45.848C89.8892 46.28 89.3612 46.624 88.6892 46.88C88.0332 47.12 87.3372 47.24 86.6012 47.24ZM87.8492 44.96C88.1532 44.96 88.4972 44.888 88.8812 44.744C89.2652 44.584 89.6012 44.368 89.8892 44.096V41.36C88.9292 41.408 88.0812 41.616 87.3452 41.984C86.6092 42.352 86.2412 42.864 86.2412 43.52C86.2412 44.016 86.3692 44.384 86.6252 44.624C86.8812 44.848 87.2892 44.96 87.8492 44.96ZM99.6868 47.24C98.6308 47.24 97.8308 46.936 97.2868 46.328C96.7428 45.704 96.4708 44.96 96.4708 44.096V37.448H94.7668L95.0308 35H96.4708V32.36L99.4468 32.048V35H102.087V37.448H99.4468V42.872C99.4468 43.512 99.4788 43.96 99.5428 44.216C99.6228 44.456 99.7748 44.616 99.9988 44.696C100.239 44.76 100.663 44.792 101.271 44.792H102.087L101.823 47.24H99.6868ZM109.809 47.24C108.417 47.24 107.225 46.96 106.233 46.4C105.257 45.824 104.521 45.064 104.025 44.12C103.545 43.16 103.305 42.096 103.305 40.928C103.305 39.808 103.537 38.784 104.001 37.856C104.465 36.928 105.137 36.192 106.017 35.648C106.897 35.088 107.945 34.808 109.161 34.808C110.281 34.808 111.225 35.04 111.993 35.504C112.777 35.968 113.361 36.592 113.745 37.376C114.145 38.16 114.345 39.04 114.345 40.016C114.345 40.496 114.281 41.04 114.153 41.648H106.401C106.561 42.704 106.977 43.496 107.649 44.024C108.321 44.536 109.129 44.792 110.073 44.792C111.369 44.792 112.569 44.464 113.673 43.808L113.817 46.328C113.305 46.6 112.705 46.824 112.017 47C111.345 47.16 110.609 47.24 109.809 47.24ZM111.321 39.632C111.321 39.008 111.145 38.456 110.793 37.976C110.441 37.496 109.897 37.256 109.161 37.256C108.425 37.256 107.833 37.472 107.385 37.904C106.937 38.336 106.633 38.912 106.473 39.632H111.321ZM129.831 47.336C128.135 47.336 126.631 46.976 125.319 46.256C124.023 45.536 123.015 44.52 122.295 43.208C121.575 41.88 121.215 40.344 121.215 38.6C121.215 36.872 121.583 35.352 122.319 34.04C123.071 32.712 124.103 31.688 125.415 30.968C126.743 30.232 128.247 29.864 129.927 29.864C131.543 29.864 132.991 30.192 134.271 30.848L133.935 33.776C133.247 33.472 132.583 33.24 131.943 33.08C131.319 32.904 130.639 32.816 129.903 32.816C128.191 32.816 126.871 33.344 125.943 34.4C125.031 35.456 124.575 36.856 124.575 38.6C124.575 40.344 125.023 41.744 125.919 42.8C126.831 43.856 128.135 44.384 129.831 44.384C130.583 44.384 131.271 44.304 131.895 44.144C132.535 43.984 133.215 43.744 133.935 43.424L134.271 46.352C132.879 47.008 131.399 47.336 129.831 47.336ZM141.606 47.24C140.342 47.24 139.246 46.96 138.318 46.4C137.39 45.84 136.678 45.088 136.182 44.144C135.686 43.2 135.438 42.16 135.438 41.024C135.438 39.888 135.686 38.84 136.182 37.88C136.678 36.92 137.39 36.16 138.318 35.6C139.246 35.04 140.342 34.76 141.606 34.76C142.87 34.76 143.966 35.04 144.894 35.6C145.822 36.16 146.534 36.92 147.03 37.88C147.526 38.84 147.774 39.888 147.774 41.024C147.774 42.16 147.526 43.2 147.03 44.144C146.534 45.088 145.822 45.84 144.894 46.4C143.966 46.96 142.87 47.24 141.606 47.24ZM141.606 44.792C142.582 44.792 143.342 44.448 143.886 43.76C144.446 43.072 144.726 42.16 144.726 41.024C144.726 39.872 144.446 38.952 143.886 38.264C143.342 37.56 142.582 37.208 141.606 37.208C140.63 37.208 139.862 37.56 139.302 38.264C138.758 38.952 138.486 39.872 138.486 41.024C138.486 42.16 138.758 43.072 139.302 43.76C139.862 44.448 140.63 44.792 141.606 44.792ZM163.309 34.808C164.909 34.808 166.093 35.296 166.861 36.272C167.645 37.232 168.037 38.584 168.037 40.328V47H165.061V40.544C165.061 39.408 164.885 38.576 164.533 38.048C164.181 37.52 163.605 37.256 162.805 37.256C162.021 37.256 161.429 37.528 161.029 38.072C160.629 38.6 160.429 39.352 160.429 40.328V47H157.453V40.544C157.453 39.408 157.269 38.576 156.901 38.048C156.533 37.52 155.949 37.256 155.149 37.256C154.205 37.256 153.429 37.6 152.821 38.288V47H149.845V35H152.389L152.485 35.96C153.573 35.192 154.749 34.808 156.013 34.808C157.549 34.808 158.693 35.36 159.445 36.464C159.861 35.936 160.405 35.528 161.077 35.24C161.749 34.952 162.493 34.808 163.309 34.808ZM176.969 34.808C178.105 34.808 179.081 35.088 179.897 35.648C180.713 36.208 181.329 36.96 181.745 37.904C182.161 38.848 182.369 39.888 182.369 41.024C182.369 42.16 182.161 43.2 181.745 44.144C181.329 45.088 180.713 45.84 179.897 46.4C179.081 46.96 178.105 47.24 176.969 47.24C176.249 47.24 175.633 47.16 175.121 47C174.625 46.856 174.145 46.616 173.681 46.28V52.808H170.705V35H173.105L173.417 36.104C173.929 35.672 174.465 35.352 175.025 35.144C175.585 34.92 176.233 34.808 176.969 34.808ZM176.513 44.792C177.393 44.792 178.081 44.448 178.577 43.76C179.073 43.072 179.321 42.16 179.321 41.024C179.321 39.888 179.073 38.976 178.577 38.288C178.081 37.6 177.393 37.256 176.513 37.256C175.521 37.256 174.777 37.592 174.281 38.264C173.785 38.936 173.537 39.856 173.537 41.024C173.537 42.192 173.785 43.112 174.281 43.784C174.777 44.456 175.521 44.792 176.513 44.792ZM187.031 47.24C186.039 47.24 185.207 46.92 184.535 46.28C183.879 45.624 183.551 44.744 183.551 43.64C183.551 42.6 183.927 41.768 184.679 41.144C185.431 40.504 186.319 40.056 187.343 39.8C188.367 39.528 189.351 39.376 190.295 39.344C190.263 38.64 190.079 38.136 189.743 37.832C189.423 37.528 188.887 37.376 188.135 37.376C187.607 37.376 187.087 37.448 186.575 37.592C186.079 37.736 185.503 37.968 184.847 38.288L184.583 35.864C186.039 35.16 187.495 34.808 188.951 34.808C190.359 34.808 191.431 35.192 192.167 35.96C192.919 36.728 193.295 37.952 193.295 39.632V42.872C193.295 43.48 193.319 43.92 193.367 44.192C193.431 44.448 193.527 44.616 193.655 44.696C193.799 44.76 194.031 44.792 194.351 44.792H194.735L194.471 47.24H193.391C192.735 47.24 192.183 47.12 191.735 46.88C191.287 46.624 190.943 46.28 190.703 45.848C190.319 46.28 189.791 46.624 189.119 46.88C188.463 47.12 187.767 47.24 187.031 47.24ZM188.279 44.96C188.583 44.96 188.927 44.888 189.311 44.744C189.695 44.584 190.031 44.368 190.319 44.096V41.36C189.359 41.408 188.511 41.616 187.775 41.984C187.039 42.352 186.671 42.864 186.671 43.52C186.671 44.016 186.799 44.384 187.055 44.624C187.311 44.848 187.719 44.96 188.279 44.96ZM202.44 34.808C203.928 34.808 205.056 35.304 205.824 36.296C206.592 37.288 206.976 38.624 206.976 40.304V47H204V40.544C204 39.424 203.808 38.6 203.424 38.072C203.056 37.528 202.456 37.256 201.624 37.256C200.712 37.256 199.96 37.6 199.368 38.288V47H196.392V35H199.176L199.224 35.84C200.232 35.152 201.304 34.808 202.44 34.808ZM212.883 46.208L207.891 35H211.203L214.275 42.728L217.395 35H220.707L213.195 52.808H210.219L212.883 46.208Z" fill="black"/>
</svg>
